<svg width="26" height="26" viewBox="0 0 26 26" fill="none" xmlns="http://www.w3.org/2000/svg">
<path d="M10.8687 25C12.1265 25 13.1461 24.0232 13.1461 22.8182C13.1461 21.6132 12.1265 20.6364 10.8687 20.6364C9.61093 20.6364 8.59131 21.6132 8.59131 22.8182C8.59131 24.0232 9.61093 25 10.8687 25Z" stroke="#FF0000"/>
<path d="M21.4965 25C22.7543 25 23.7739 24.0232 23.7739 22.8182C23.7739 21.6132 22.7543 20.6364 21.4965 20.6364C20.2387 20.6364 19.2191 21.6132 19.2191 22.8182C19.2191 24.0232 20.2387 25 21.4965 25Z" stroke="#FF0000"/>
<path d="M1 1H4.03651L9.35648 17H21.4964" stroke="#FF0000" stroke-linecap="round" stroke-linejoin="round"/>
<path d="M8.17234 13.3636L5.25122 4.63635H24.24C24.3604 4.63621 24.479 4.66348 24.5862 4.71592C24.6934 4.76836 24.786 4.84446 24.8565 4.93795C24.9269 5.03143 24.9732 5.13962 24.9914 5.25359C25.0096 5.36757 24.9992 5.48405 24.9612 5.59344L22.4303 12.8662C22.38 13.0109 22.2834 13.1369 22.1542 13.2261C22.0251 13.3154 21.8699 13.3635 21.7106 13.3636H8.17234Z" stroke="#FF0000" stroke-linecap="round" stroke-linejoin="round"/>
</svg>
