<svg width="24" height="26" viewBox="0 0 24 26" fill="none" xmlns="http://www.w3.org/2000/svg">
<path d="M3.93287 25C2.31312 25 1 23.6934 1 22.08V10.3442C1 9.45757 1.40563 8.61758 2.1 8.06426L10.1671 1.64036C10.6826 1.22648 11.3308 1 12 1C12.6692 1 13.3174 1.22648 13.8329 1.64036L21.8986 8.06426C22.5944 8.61758 23 9.45757 23 10.3442V22.08C23 23.6934 21.6869 25 20.0671 25H3.93287Z" stroke="#FF0000" stroke-linecap="round" stroke-linejoin="round"/>
<path d="M8.5625 25V17.6668C8.5625 16.9596 8.85223 16.2813 9.36796 15.7812C9.88368 15.2811 10.5832 15.0002 11.3125 15.0002H12.6875C13.4168 15.0002 14.1163 15.2811 14.632 15.7812C15.1478 16.2813 15.4375 16.9596 15.4375 17.6668V25" stroke="#FF0000" stroke-linecap="round" stroke-linejoin="round"/>
</svg>
