<svg width="22" height="26" viewBox="0 0 22 26" fill="none" xmlns="http://www.w3.org/2000/svg">
<path d="M21 20.1999V10.5998C21 8.33663 21 7.20502 20.2675 6.50301C19.535 5.7998 18.3575 5.7998 16 5.7998H1V20.1999C1 22.4619 1 23.5936 1.7325 24.2968C2.465 25 3.6425 25 6 25H16C18.3575 25 19.535 25 20.2675 24.2968C21 23.5936 21 22.4619 21 20.1999Z" stroke="#FF0000" stroke-linecap="round" stroke-linejoin="round"/>
<path d="M11 11.7999C11.9946 11.7999 12.9484 12.1792 13.6517 12.8543C14.3549 13.5294 14.75 14.4451 14.75 15.3999M11 11.7999C10.0054 11.7999 9.05161 12.1792 8.34835 12.8543C7.64509 13.5294 7.25 14.4451 7.25 15.3999M11 11.7999V10.5999M14.75 15.3999H7.25M14.75 15.3999H16M7.25 15.3999H6M6 20.2H16M1 5.79984L10.2313 2.087C12.2925 1.2578 13.3225 0.842593 14.1438 1.055C14.6762 1.19236 15.1464 1.49486 15.4813 1.9154C16 2.56581 16 3.64342 16 5.79984" stroke="#FF0000" stroke-linecap="round" stroke-linejoin="round"/>
</svg>
