<svg width="24" height="24" viewBox="0 0 24 24" fill="none" xmlns="http://www.w3.org/2000/svg">
<path d="M0 12C-2.34822e-08 10.4241 0.310389 8.86371 0.913445 7.4078C1.5165 5.95189 2.40042 4.62902 3.51472 3.51472C4.62902 2.40042 5.95189 1.5165 7.4078 0.913446C8.86371 0.310389 10.4241 0 12 0C13.5759 0 15.1363 0.310389 16.5922 0.913446C18.0481 1.5165 19.371 2.40042 20.4853 3.51472C21.5996 4.62902 22.4835 5.95189 23.0866 7.4078C23.6896 8.86371 24 10.4241 24 12C24 15.1826 22.7357 18.2348 20.4853 20.4853C18.2348 22.7357 15.1826 24 12 24C8.8174 24 5.76516 22.7357 3.51472 20.4853C1.26428 18.2348 4.74244e-08 15.1826 0 12Z" fill="url(#paint0_linear_123_217)"/>
<path d="M16.24 8.32812L10.5 14.0841L7.708 11.2921C7.61502 11.1991 7.50464 11.1254 7.38316 11.0751C7.26169 11.0248 7.13148 10.9989 7 10.9989C6.86851 10.9989 6.73831 11.0248 6.61683 11.0751C6.49535 11.1254 6.38497 11.1991 6.292 11.2921C6.19902 11.3851 6.12527 11.4955 6.07495 11.617C6.02463 11.7384 5.99873 11.8686 5.99873 12.0001C5.99873 12.1316 6.02463 12.2618 6.07495 12.3833C6.12527 12.5048 6.19902 12.6151 6.292 12.7081L9.792 16.2081C9.88489 16.3012 9.99524 16.3751 10.1167 16.4255C10.2382 16.476 10.3685 16.5019 10.5 16.5019C10.6315 16.5019 10.7618 16.476 10.8833 16.4255C11.0048 16.3751 11.1151 16.3012 11.208 16.2081L17.656 9.74012C17.8379 9.55127 17.9384 9.29852 17.9357 9.03631C17.9331 8.77411 17.8276 8.52343 17.6419 8.33828C17.4562 8.15313 17.2052 8.04831 16.943 8.04641C16.6808 8.04451 16.4283 8.14568 16.24 8.32812Z" fill="url(#paint1_linear_123_217)"/>
<defs>
<linearGradient id="paint0_linear_123_217" x1="0.858" y1="4.5" x2="17.42" y2="21.708" gradientUnits="userSpaceOnUse">
<stop stop-color="#52D17C"/>
<stop offset="1" stop-color="#22918B"/>
</linearGradient>
<linearGradient id="paint1_linear_123_217" x1="8.24" y1="8.89812" x2="10.152" y2="18.4201" gradientUnits="userSpaceOnUse">
<stop stop-color="white"/>
<stop offset="1" stop-color="#E3FFD9"/>
</linearGradient>
</defs>
</svg>
