<svg width="20" height="24" viewBox="0 0 20 24" fill="none" xmlns="http://www.w3.org/2000/svg">
<path d="M5 11.3333V10H15V11.3333H5ZM5 6V4.66667H15V6H5ZM1.42857 15.3333H12.1429C12.7238 15.3333 13.2571 15.4511 13.7429 15.6867C14.2276 15.9213 14.6448 16.2516 14.9943 16.6773L18.5714 21.0107V2.15467C18.5714 1.91467 18.489 1.71778 18.3243 1.564C18.1595 1.41022 17.949 1.33333 17.6929 1.33333H2.30714C2.05095 1.33333 1.84048 1.41022 1.67571 1.564C1.51095 1.71778 1.42857 1.91467 1.42857 2.15467V15.3333ZM2.30857 22.6667H18.1214L13.8714 17.4893C13.6552 17.2262 13.4 17.0231 13.1057 16.88C12.8124 16.7378 12.4914 16.6667 12.1429 16.6667H1.42857V21.8467C1.42857 22.0858 1.51095 22.2822 1.67571 22.436C1.84048 22.5898 2.05143 22.6667 2.30857 22.6667ZM17.6929 24H2.30714C1.65 24 1.10143 23.7947 0.661428 23.384C0.221428 22.9733 0.000952381 22.4609 0 21.8467V2.15333C0 1.54 0.220476 1.028 0.661428 0.617333C1.10238 0.206667 1.65143 0.000888889 2.30857 0H17.6929C18.35 0 18.899 0.205778 19.34 0.617333C19.781 1.02889 20.0009 1.54133 20 2.15467V21.8467C20 22.46 19.78 22.9724 19.34 23.384C18.9 23.7956 18.3519 24.0009 17.6929 24Z" fill="#FF0505"/>
</svg>
